<?xml version="1.0" standalone="no"?>
<!DOCTYPE svg PUBLIC "-//W3C//DTD SVG 20010904//EN"
 "http://www.w3.org/TR/2001/REC-SVG-20010904/DTD/svg10.dtd">
<svg version="1.0" xmlns="http://www.w3.org/2000/svg"
 width="700.000000pt" height="700.000000pt" viewBox="0 0 700.000000 700.000000"
 preserveAspectRatio="xMidYMid meet">
<metadata>
Created by potrace 1.14, written by Peter Selinger 2001-2017
</metadata>
<g transform="translate(0.000000,700.000000) scale(0.100000,-0.100000)"
fill="#000000" stroke="none">
<path d="M447 6796 c-166 -62 -276 -256 -304 -541 -9 -92 -9 -712 1 -795 26
-229 98 -385 237 -517 191 -181 220 -215 251 -303 26 -71 30 -121 30 -329 -1
-142 -5 -212 -16 -253 -41 -152 -136 -194 -196 -88 -25 45 -25 46 -28 343 -2
163 -6 295 -10 293 -4 -2 -31 -7 -61 -11 -30 -4 -61 -8 -70 -10 -9 -1 -36 -6
-61 -9 -96 -14 -85 36 -84 -382 0 -402 5 -475 35 -584 50 -180 137 -264 275
-262 264 3 450 219 492 572 12 97 12 768 0 885 -27 271 -114 434 -306 580
-128 96 -179 168 -200 285 -17 88 -13 405 5 468 31 105 109 145 165 85 52 -58
60 -106 60 -365 l0 -210 82 6 c44 4 101 10 126 13 25 3 53 6 63 5 17 -1 18 17
16 301 -1 306 -9 400 -44 517 -39 130 -130 249 -221 291 -62 28 -182 36 -237
15z"/>
<path d="M2410 6799 c-175 -50 -284 -219 -306 -473 -4 -43 -7 -182 -8 -308
l-1 -230 75 6 c127 11 174 16 195 21 19 4 20 12 20 202 1 181 3 202 22 245 38
84 108 104 168 48 41 -38 48 -90 50 -340 0 -129 -1 -242 -3 -251 -2 -11 -40
-27 -115 -49 -147 -44 -225 -79 -276 -125 -63 -57 -107 -162 -127 -305 -11
-79 -6 -950 6 -1030 17 -118 39 -191 76 -252 61 -101 133 -130 218 -88 56 27
141 119 179 194 16 31 30 56 31 56 2 0 2 -10 1 -23 -2 -13 2 -46 7 -74 l10
-50 62 17 c33 10 97 27 141 39 l80 22 -2 477 c-2 262 -4 794 -6 1182 -2 634
-5 711 -20 765 -43 150 -122 255 -224 302 -62 29 -192 40 -253 22z m183 -1904
c-1 -223 2 -345 9 -345 13 0 3 -68 -15 -112 -21 -48 -59 -79 -106 -85 -36 -5
-44 -2 -70 26 -20 22 -32 47 -37 79 -10 66 -11 507 -1 567 16 93 55 138 165
191 26 12 49 23 52 23 3 1 4 -154 3 -344z"/>
<path d="M4332 6789 c-132 -45 -222 -160 -257 -326 -12 -56 -14 -216 -14 -923
0 -501 4 -876 9 -905 33 -172 151 -267 313 -251 176 17 347 127 423 271 56
107 66 170 67 447 0 136 -2 250 -5 253 -3 4 -32 2 -64 -4 -33 -6 -79 -13 -104
-16 -74 -10 -104 -16 -109 -21 -3 -3 -6 -89 -6 -192 -1 -166 -4 -192 -22 -233
-56 -125 -185 -132 -211 -12 -12 55 -14 551 -2 558 7 4 153 28 245 39 39 5 99
14 141 21 12 2 47 6 78 10 l56 7 0 457 c0 285 -4 480 -11 517 -38 208 -186
327 -399 323 -42 -1 -98 -10 -128 -20z m202 -371 c33 -14 53 -45 62 -94 8 -43
12 -464 4 -465 -3 0 -14 -2 -25 -4 -26 -5 -144 -18 -174 -19 l-24 -1 0 208 c1
131 -2 207 -9 207 -13 0 0 76 19 113 16 32 68 67 100 67 12 0 33 -5 47 -12z"/>
<path d="M6075 6780 l-40 -5 0 -947 c1 -521 4 -950 7 -954 7 -6 240 51 268 66
13 7 15 55 15 343 l-1 335 44 7 c43 6 64 10 112 20 14 2 41 7 60 10 114 19
184 49 222 94 26 31 55 92 63 131 6 32 10 146 17 580 3 141 2 146 -25 203 -35
69 -89 106 -170 114 -73 6 -524 9 -572 3z m458 -338 c11 -11 23 -40 26 -64 9
-59 4 -326 -7 -362 -10 -36 -45 -63 -92 -70 -19 -4 -53 -10 -75 -15 -22 -6
-41 -8 -43 -6 -3 3 -5 372 -3 500 l1 41 86 -2 c72 -1 90 -5 107 -22z"/>
<path d="M3620 6316 c-1 -474 -3 -499 -47 -548 -25 -29 -70 -46 -137 -53 l-56
-6 0 520 0 521 -145 0 -145 0 0 -1336 0 -1336 23 6 c12 3 77 20 145 38 l122
32 0 567 0 568 58 7 c89 11 110 9 136 -15 13 -12 29 -41 35 -64 6 -26 12 -217
15 -492 2 -247 6 -459 9 -470 2 -11 8 -19 13 -19 5 1 69 17 142 35 l132 33 -4
61 c-3 33 -5 247 -6 475 -1 438 -6 495 -49 581 -26 53 -45 76 -93 112 l-37 28
38 39 c50 52 98 143 120 232 17 65 19 118 20 504 l2 430 -146 0 -145 0 0 -450z"/>
<path d="M5043 6756 c-4 -5 -6 -406 -6 -890 0 -638 3 -904 12 -966 22 -154 99
-258 198 -267 94 -9 214 59 284 161 l34 49 9 -54 c5 -30 10 -55 12 -57 3 -4
217 54 249 67 20 8 20 15 20 987 l0 979 -142 0 -143 1 0 -96 c-1 -52 -2 -423
-3 -825 -2 -716 -2 -731 -23 -765 -38 -65 -113 -97 -165 -70 -10 6 -26 25 -36
43 -15 29 -17 101 -19 867 -1 459 -2 837 -3 840 -2 11 -272 7 -278 -4z"/>
<path d="M1630 6140 l0 -610 -22 -5 c-26 -5 -68 -11 -149 -20 l-56 -7 1 604
c1 332 -2 610 -6 619 -6 14 -27 16 -145 15 l-138 -2 0 -1582 c0 -1065 3 -1582
10 -1582 5 1 70 17 144 38 l135 37 0 670 1 670 50 7 c28 4 73 10 100 14 28 3
55 7 60 7 7 1 12 -225 15 -654 l5 -656 148 45 147 45 0 1479 0 1478 -150 0
-150 0 0 -610z"/>
<path d="M6428 4395 c-2 -1 -30 -5 -63 -8 -49 -4 -831 -193 -940 -226 -16 -5
-133 -35 -260 -66 -126 -30 -247 -60 -267 -66 l-38 -10 0 -1908 0 -1909 736 0
c817 1 838 2 959 62 135 67 219 181 265 359 37 147 44 258 44 702 0 353 -4
440 -25 560 -51 297 -215 451 -487 458 -38 1 -68 5 -65 10 2 4 11 7 19 7 28 0
139 52 206 97 164 108 269 290 314 543 23 127 29 795 10 940 -36 265 -126 402
-287 439 -48 11 -116 20 -121 16z m-381 -802 c29 -19 54 -75 69 -153 16 -86
13 -497 -5 -560 -35 -122 -107 -197 -206 -213 -17 -3 -41 -8 -55 -11 -26 -6
-68 -14 -110 -21 -14 -2 -58 -10 -97 -18 -51 -10 -73 -11 -73 -3 -3 70 0 919
3 923 5 4 326 79 367 85 28 4 74 -8 107 -29z m-5 -1658 c23 -16 46 -44 64 -82
l29 -58 3 -300 c5 -386 -7 -468 -83 -547 -25 -27 -85 -64 -85 -53 0 3 -8 1
-18 -4 -9 -5 -87 -12 -172 -16 -85 -4 -167 -9 -182 -11 l-28 -4 0 207 c0 115
-1 354 -1 532 0 178 3 327 8 331 8 9 70 16 228 26 50 4 92 8 94 10 12 11 111
-10 143 -31z"/>
<path d="M3745 3783 c-277 -33 -624 -161 -840 -310 -90 -62 -224 -193 -273
-267 -57 -85 -98 -178 -118 -271 -3 -16 -7 -207 -8 -423 l-2 -394 50 6 c28 3
94 12 146 20 52 9 115 18 140 21 25 3 56 8 70 10 52 9 87 14 135 20 52 6 73 9
142 20 l42 7 3 361 c3 351 4 363 25 403 48 89 117 135 241 158 115 21 178 -2
219 -83 21 -41 22 -54 22 -349 0 -207 -4 -322 -12 -352 -16 -61 -67 -146 -119
-199 -79 -82 -153 -131 -518 -344 -245 -142 -415 -303 -498 -472 -27 -55 -62
-155 -78 -230 -4 -16 -9 -232 -11 -480 l-5 -450 969 1 c532 1 971 2 975 3 4 1
6 139 5 308 l-2 308 -25 -1 c-14 -1 -88 -5 -165 -9 -77 -3 -178 -8 -225 -10
-47 -3 -134 -7 -195 -10 -60 -3 -153 -7 -205 -10 -52 -3 -158 -7 -235 -10 -77
-3 -146 -8 -152 -10 -14 -5 -14 -4 -17 80 -6 223 96 357 424 558 351 215 513
341 626 489 94 122 164 291 180 433 4 39 7 279 7 535 0 516 -4 554 -64 676
-89 180 -271 274 -529 271 -52 0 -108 -2 -125 -4z"/>
<path d="M1610 3160 c-47 -10 -245 -61 -440 -113 -195 -52 -497 -132 -670
-177 -173 -46 -319 -88 -325 -95 -7 -8 -10 -375 -9 -1061 1 -971 2 -1055 19
-1124 47 -197 190 -348 360 -379 52 -10 1165 -8 1200 2 11 3 43 11 70 18 69
17 158 63 206 106 72 65 129 198 144 338 6 56 6 501 0 550 -3 22 -7 60 -10 85
-32 270 -190 399 -491 402 l-81 1 98 33 c131 44 201 85 282 165 100 100 149
214 172 408 9 72 9 419 0 501 -18 174 -82 283 -195 333 -64 28 -217 31 -330 7z
m-253 -584 c19 -9 40 -34 53 -62 20 -40 23 -63 24 -192 3 -196 -9 -259 -61
-318 -37 -44 -118 -76 -218 -90 -16 -2 -41 -6 -55 -8 -25 -5 -67 -11 -147 -21
-23 -2 -46 -5 -50 -6 -4 -1 -13 -1 -18 0 -6 1 -10 113 -10 316 l0 314 45 11
c25 6 54 12 65 15 11 2 74 17 139 33 128 31 185 33 233 8z m-17 -1153 c43 -19
71 -50 91 -103 17 -45 19 -73 17 -258 -3 -195 -4 -210 -27 -256 -29 -60 -88
-99 -168 -114 -32 -6 -65 -10 -73 -10 -8 0 -80 -3 -160 -7 l-145 -7 0 365 c0
201 2 368 5 370 3 3 39 9 80 12 41 4 107 10 145 14 96 10 205 7 235 -6z"/>
</g>
</svg>
