<?xml version="1.0" encoding="utf-8"?>
<!-- Generator: Adobe Illustrator 27.1.1, SVG Export Plug-In . SVG Version: 6.00 Build 0)  -->
<svg version="1.1" id="Layer_1" xmlns="http://www.w3.org/2000/svg" xmlns:xlink="http://www.w3.org/1999/xlink" x="0px" y="0px"
	 viewBox="0 0 50 50" style="enable-background:new 0 0 50 50;" xml:space="preserve">
<style type="text/css">
	.st0{fill:#828282;}
</style>
<g>
	<path class="st0" d="M6.2,18.7v1.8c0,0.9-0.3,1.7-0.8,1.8c-0.5,0.1-0.8-0.5-0.8-1.4v-3.2L2.7,18v4.3c0,2.9,1,4.1,2.7,3.7
		c1.7-0.4,2.7-2.1,2.7-4.8v-3.4c0-6.5-3.5-4.1-3.5-8V8.4c0-0.9,0.3-1.6,0.8-1.6c0.5,0,0.8,0.6,0.8,1.6v2.4l1.9-0.2V7.5
		c0-2.7-1-4.4-2.7-4.4c-1.6,0-2.7,1.8-2.7,4.7v3C2.7,16.6,6.2,15.2,6.2,18.7z"/>
	<polygon class="st0" points="14.6,23.1 14.6,3.5 12.6,3.5 12.6,11.6 11.1,11.8 11.1,3.6 9.2,3.6 9.2,24.6 11.1,24.1 11.1,15.2 
		12.6,15 12.6,23.7 	"/>
	<path class="st0" d="M21.1,19.6V6.8c0-2.3-1-3.7-2.7-3.7s-2.7,1.5-2.7,4v2.8l1.9-0.2V7.6c0-0.8,0.3-1.4,0.8-1.4
		c0.5,0,0.8,0.5,0.8,1.3v2.9c-1.7,0.7-3.5,0.3-3.5,4.1V19c0,2.8,0.9,3.9,1.8,3.7c0.6-0.2,1.2-0.8,1.6-1.8c0,0.4,0.1,0.8,0.1,1
		l1.9-0.5C21.1,21.1,21.1,20.4,21.1,19.6z M19.1,18.1c0,0.7-0.3,1.2-0.8,1.3c-0.5,0.1-0.8-0.4-0.8-1.2v-2.8c0-1.4,0.7-1.5,1.5-1.9
		V18.1z"/>
	<path class="st0" d="M24.2,13.2l0.8-0.1c0.5-0.1,0.8,0.4,0.8,1.1v3c0,1.1,0,2.5,0.1,3l1.9-0.5c-0.1-0.4-0.1-1.4-0.1-2.3V14
		c0-1.4-0.4-2.2-1.2-2.6c0.7-0.6,1.2-1.5,1.2-2.9V3.4l-1.9,0V9c0,0.7-0.3,1.2-0.8,1.3l-0.8,0.1V3.5l-1.9,0v17.7l1.9-0.5L24.2,13.2
		L24.2,13.2z"/>
	<path class="st0" d="M34.1,15.5v-2.8L32.2,13v2.2c0,0.6-0.3,1.1-0.8,1.3c-0.5,0.1-0.8-0.3-0.8-1v-3.3l3.5-0.5V6.1c0-1.9-1-3-2.7-3
		c-1.6,0-2.7,1.2-2.7,3.3v10.3c0,2.1,1.1,2.8,2.7,2.4C33.1,18.6,34.1,17.4,34.1,15.5L34.1,15.5z M30.7,6.8c0-0.7,0.3-1.1,0.8-1.2
		c0.5,0,0.8,0.4,0.8,1.1v2.7l-1.5,0.2h0V6.8z"/>
	<path class="st0" d="M37.1,17.5c0.6-0.2,1.2-0.6,1.6-1.4l0.1,0.8l1.8-0.5v-13l-1.9,0V14c0,0.5-0.3,1-0.8,1.1
		c-0.5,0.1-0.8-0.3-0.8-0.9V3.4l-1.9,0v11.5C35.2,17,36.1,17.8,37.1,17.5z"/>
	<path class="st0" d="M45.6,3.3l-3.8,0h0v12.7l1.9-0.5V11l1.8-0.3c1.6-0.3,1.6-1.6,1.6-2.8V5.9C47.3,4.7,47.2,3.3,45.6,3.3z
		 M45.3,7.7c0,0.7-0.1,1.1-0.6,1.1L43.8,9V5.4l0.9,0c0.5,0,0.6,0.3,0.6,1V7.7z"/>
	<path class="st0" d="M12.1,36.9c3.8-0.8,3.9-3.3,3.9-5.4v-0.6c0-2.1-0.1-4.5-4-3.5l-9.1,2.4v13.6c0,1.9,1.3,3.5,3,3.5h6.3
		c3.9,0,4-2.4,4-4.6v-1.4C16.1,38.9,16,36.6,12.1,36.9z M7.6,31.6l2.1-0.5c1.2-0.3,1.6,0.3,1.6,1.3v1.2c0,1.1-0.4,1.7-1.6,1.9
		l-2.1,0.3V31.6z M11.4,41.9c0,1.1-0.4,1.7-1.6,1.8l-2.2,0.1v-4.9l2.2-0.2c1.2-0.1,1.6,0.5,1.6,1.5V41.9z"/>
	<path class="st0" d="M24.9,23.5c-4,1.1-6.5,3.4-6.5,6.1v4.6l4.8-0.7v-4.1c0-1,0.5-1.8,1.7-2c1.2-0.3,1.7,0.3,1.7,1.3v3.2
		c0,4.1-8.2,3.6-8.2,10.1v5h12.9v-4.1l-8.1,0.4v-0.9c0-3.7,8.2-3.9,8.2-10.3v-5.1C31.4,23.7,29,22.4,24.9,23.5z"/>
	<path class="st0" d="M43.3,32.7c3.8-1,3.9-4.5,3.9-7.3v-0.8c0-3-0.1-6.3-4-5.3L34,21.6v25.3h9.3c3.9,0,4-3.4,4-6.4v-2
		C47.3,35.7,47.2,32.5,43.3,32.7z M38.7,24.8l2.1-0.5c1.2-0.3,1.6,0.5,1.6,2V28c0,1.5-0.4,2.4-1.6,2.6L38.7,31V24.8z M42.5,39.9
		c0,1.5-0.4,2.4-1.6,2.5l-2.2,0.1v-7.1l2.2-0.2c1.2-0.1,1.6,0.7,1.6,2.2V39.9z"/>
</g>
</svg>
