<?xml version="1.0" encoding="utf-8"?>
<!-- Generator: Adobe Illustrator 27.0.1, SVG Export Plug-In . SVG Version: 6.00 Build 0)  -->
<svg version="1.1" id="Layer_1" xmlns="http://www.w3.org/2000/svg" xmlns:xlink="http://www.w3.org/1999/xlink" x="0px" y="0px"
	 viewBox="0 0 500 500" style="enable-background:new 0 0 500 500;" xml:space="preserve">
<style type="text/css">
	.st0{fill:#FFFFFF;}
</style>
<path class="st0" d="M168.1,450.8h4.8v30.4h-3.2l0.1-27l-11.8,27h-2.2l-11.8-27l0.1,27h-3.2v-30.4h4.8l11.2,25.5L168.1,450.8z
	 M198,459.1h3v22.1h-3v-4.6c-1.7,3.3-5.1,5.2-9,5.2c-7.2,0-11.4-5.6-11.4-11.7c0-6.5,4.7-11.7,11.4-11.7c4.7,0,8,2.7,9,5.3V459.1z
	 M198,470.1c0-1.2-0.2-2.5-0.7-3.5c-1.2-3-4.2-5.3-8.1-5.3c-5.1,0-8.8,3.9-8.8,8.9v0c0,4,2.8,8.8,8.9,8.8c3.9,0,6.8-2.3,8-5.4
	C197.8,472.5,198,471.3,198,470.1z M209.8,462.7v-3.6h-2.9v22.1h3v-12c0-5,2.4-7.7,6.6-7.7h0.3v-3
	C214.2,458.6,211.4,459.4,209.8,462.7z M236.9,459.1h-3.7l-9.9,9.1v-17.4h-3v30.4h3v-11.7l10.6,11.7h3.6l-11.1-12.4L236.9,459.1z
	 M257.4,461.6c2.5,2.5,3.8,5.9,3.4,9.4h-20.1c0.2,5.5,4.9,8.2,8.6,8.2c3.4,0,6.2-1.7,7.6-4.6h3.2c-1,2.4-2.6,4.2-4.5,5.4
	c-1.8,1.2-4,1.8-6.3,1.8c-7.7,0-11.7-6.1-11.7-11.6c0-6.5,5-11.7,11.6-11.7C252.5,458.5,255.3,459.6,257.4,461.6z M257.9,468.6
	c-0.2-3.9-3.9-7.6-8.5-7.5c-4.8,0-8.3,3.5-8.6,7.5H257.9z M269.9,450.8h-3v8.3h-4.3v2.4h4.3v19.7h3v-19.7h4.8v-2.4h-4.8V450.8z
	 M278.1,455.1h3v-4.2h-3V455.1z M278.1,481.2h3v-22.1h-3V481.2z M298.1,458.5c-3.9-0.1-6.9,1.7-8.2,4.6c0-1.5,0-2.7,0-3.9H287v22.1
	h3v-12.5c0-4.6,2.6-7.3,7.2-7.4c5-0.1,7.1,3.2,7.1,7.9v11.9h3v-12.6C307.3,463.3,304.9,458.6,298.1,458.5z M332.3,459.1h3v19.5
	c0,4.2-1.4,6.9-3.3,8.7c-2.2,2.1-5.4,3.4-8.4,3.4c-5.5,0-9.5-3.2-10.9-7.1h3.5c0.5,0.9,1.3,2,2.6,2.9c1.6,1.1,3.5,1.6,4.9,1.6
	c4.2,0,8.5-3.3,8.5-8.8v-2.8c-1.6,3.1-4.6,5.3-8.9,5.3c-6.9,0-11.5-5.3-11.5-11.6c0-6.6,4.8-11.7,11.5-11.7c4.3,0,7.7,2.5,8.9,5.2
	V459.1z M332.3,470.2c0-1.8-0.6-4-2-5.8c-1.4-1.8-3.6-3.1-6.7-3.1c-4.8,0-8.8,3.6-8.8,8.8v0c0,4.5,3.2,8.8,8.9,8.8
	c2.5,0,4.6-0.9,6.2-2.5C331.4,474.8,332.3,472.6,332.3,470.2z M360.3,460c0,2.9-1.3,5.8-3.1,7.2c-2,1.6-4.1,2.1-8,2.1h-4.9v11.9
	h-3.4v-30.4h8c4.3,0,6.3,0.5,8.2,1.9C359.1,454.3,360.3,457.1,360.3,460z M357,460.1c0-2.2-0.9-4.1-2.3-5c-1.5-1-3.1-1.3-5.7-1.3
	h-4.8v12.4h4.8c2.5,0,4.1-0.3,5.6-1.3C356.1,464.1,357,462.2,357,460.1z M366.6,462.7v-3.6h-2.9v22.1h3v-12c0-5,2.4-7.7,6.6-7.7h0.3
	v-3C371.1,458.6,368.2,459.4,366.6,462.7z M397.3,470.2c0,6.2-4.6,11.6-11.7,11.6c-7.1,0-11.7-5.4-11.7-11.6v0
	c0-6.2,4.6-11.6,11.7-11.6C392.7,458.5,397.3,464,397.3,470.2z M394.3,470.2c0-5-3.8-8.8-8.7-8.8c-4.9,0-8.7,3.8-8.7,8.8v0
	c0,5,3.8,8.8,8.7,8.8C390.5,479,394.3,475.2,394.3,470.2z M402.4,457.3v1.8h-3.2v2.4h3.2v19.7h3v-19.7h4.8v-2.4h-4.8v-1.5
	c0-4.8,3.2-4.8,4.8-4.9v-2.4C407.8,450.3,402.4,450.5,402.4,457.3z M420.1,468.3c-2.7-0.8-4.3-1.6-4.3-3.7c-0.1-1.9,1.4-3.6,3.8-3.6
	c2.2,0,3.8,1.3,3.8,3.7h3c-0.2-4.5-3.7-6.2-6.7-6.2c-3.7,0-6.9,2.3-6.9,6.3c0.1,3.5,2.5,4.8,5.7,5.7c3.8,1.1,5.5,2.1,5.5,4.6
	c0,2.3-1.7,4.1-4.3,4.1c-2.2,0-4.5-1.4-4.6-4.4h-3c0,4.6,4,6.9,7.5,6.9c4.2,0,7.5-3,7.3-7C426.7,470.1,423.2,469.2,420.1,468.3z
	 M96.9,490.2c0.7,0.2,1.5,0.3,2.2,0.4v-8c-1.1-0.1-1.9-0.2-2.2-0.3V490.2z M86.8,475c-2.1-3.6-2.5-7.8-1.5-11.5l0,0l1.4-5.4
	l-5.3-1.4l4.7-1.4l-4-4.2c-3.1,4.1-5,9.3-5,14.9c0,11.2,7.4,20.6,17.6,23.7v-8C91.5,480.5,88.7,478.2,86.8,475z M117.8,485
	c5.5-4.5,8.9-11.4,8.9-19c0-1-0.1-2-0.2-2.9l-15.8,13.7L117.8,485z M104.8,481.8c-1.3,0.4-2.5,0.7-3.6,0.8v8.2c0.2,0,0.5,0,0.7,0
	c5.8,0,11.2-2,15.4-5.4L104.8,481.8L104.8,481.8z M101.9,441.2c-8,0-15.2,3.8-19.7,9.7l6,1.6l0-0.1c1.7-6.3,16.7-3.4,16.7-3.4
	s-9.8,8.7-4.7,14.9l6.8,8.3l8.7-13h10.1C122.9,448.9,113.3,441.2,101.9,441.2z M131.7,466c0,16.4-13.3,29.7-29.7,29.7
	S72.2,482.4,72.2,466s13.3-29.7,29.7-29.7S131.7,449.6,131.7,466z M129.9,466c0-15.4-12.5-28-28-28s-28,12.5-28,28
	c0,15.4,12.5,28,28,28S129.9,481.4,129.9,466z M93.3,453.5c0-0.6-0.5-1.2-1.2-1.2c-0.6,0-1.2,0.5-1.2,1.2c0,0.6,0.5,1.2,1.2,1.2
	C92.8,454.7,93.3,454.2,93.3,453.5z M452,235.5l-45.2,45.2v64c0,15.5-12.6,28.1-28.1,28.1h-64L269.4,418c-5.3,5.3-12.4,8.2-19.9,8.2
	c-7.5,0-14.5-2.9-19.9-8.2l-45.2-45.2h-64c-15.5,0-28.1-12.6-28.1-28.1v-64l-45.2-45.2c-5.3-5.3-8.2-12.4-8.2-19.9
	s2.9-14.5,8.2-19.9l45.2-45.2v-64c0-15.5,12.6-28.1,28.1-28.1h64l45.2-45.2C235,7.9,242.1,5,249.6,5c7.5,0,14.5,2.9,19.9,8.2
	l45.2,45.2h64c15.5,0,28.1,12.6,28.1,28.1v64l45.2,45.2C462.9,206.7,462.9,224.5,452,235.5z M249.6,415c4.3,0,8.6-1.6,11.9-4.9
	l37.3-37.3h-98.4l37.3,37.3C240.9,413.4,245.3,415,249.6,415z M378.6,361.5c9.3,0,16.8-7.5,16.8-16.8V86.5c0-9.3-7.5-16.8-16.8-16.8
	H120.5c-9.3,0-16.8,7.5-16.8,16.8v258.2c0,9.3,7.5,16.8,16.8,16.8H378.6z M92.4,166.4l-37.3,37.3c-6.6,6.6-6.6,17.2,0,23.8
	l37.3,37.3V166.4z M237.7,21.2l-37.3,37.3h98.4l-37.3-37.3c-3.3-3.3-7.6-4.9-11.9-4.9C245.3,16.2,240.9,17.9,237.7,21.2z
	 M406.7,264.8l37.3-37.3c6.6-6.6,6.6-17.2,0-23.8l-37.3-37.3V264.8z M151,182.8v9.4c0,4.8-1.5,8.7-4.1,9.3c-2.5,0.6-4-2.6-4-7.5
	v-16.8l-10.2,1.7v22.6c0,15.3,5.5,21.5,14.1,19.2c8.7-2.3,14.2-10.9,14.2-25.3v-17.6c0-33.9-18.2-21.6-18.2-42.2v-6.9
	c0-4.9,1.5-8.5,4-8.6c2.6-0.1,4.1,3.4,4.1,8.2v12.8l10.2-0.9v-16.3c0-14.4-5.5-23-14.2-23c-8.6,0-14.1,9.2-14.1,24.5v15.5
	C132.8,171.5,151,164.2,151,182.8z M194.9,205.8V103l-10.2,0.1v42.3l-8,0.9v-43.1l-10.2,0.1v110.1l10.2-2.6v-46.5l8-1.2v45.6
	L194.9,205.8z M218.9,194.1c-2.2,5-5.7,8.5-8.6,9.3c-5,1.3-9.7-4.6-9.7-19.4v-23.8c0-19.6,9.4-17.8,18.2-21.3v-15c0-4.1-1.5-7-4-6.8
	c-2.5,0.1-4,3.3-4,7.5v11.1l-10.2,0.9v-14.8c0-13.1,5.5-21,14.2-21c8.7,0,14.2,7.3,14.2,19.5v67.1c0,4.1,0.2,7.8,0.5,9.5l-10,2.6
	C219.2,198.4,219,196.4,218.9,194.1z M218.8,155.1c-4.2,1.9-8,2.6-8,10V180c0,4.2,1.5,6.9,4,6.4c2.4-0.5,3.8-3.3,4-7V155.1z
	 M245.3,153.8l4.1-0.6c2.5-0.4,4.1,2.3,4.1,5.9v15.5c0,5.6,0.1,13.3,0.7,15.9l10-2.6c-0.5-2-0.5-7.2-0.5-11.9v-17.8
	c0-7.1-2.3-11.6-6.2-13.6c3.9-3,6.2-8.1,6.2-15.2v-26.8l-10.1,0.1v29.1c0,3.6-1.5,6.5-4,6.8l-4.1,0.4v-36.3l-10.2,0.1v92.7l10.2-2.6
	V153.8z M297.5,166c0,9.9-5.5,16.3-14.2,18.6c-8.6,2.3-14.2-1.6-14.2-12.5v-53.9c0-10.9,5.5-17.4,14.1-17.4
	c8.7,0,14.2,5.9,14.2,15.9v29.3l-18.2,2.7v17.3c0,3.4,1.5,5.7,4,5.1c2.6-0.6,4-3.3,4-6.6v-11.5l10.2-1.7V166z M279.3,135.2l8-0.9
	v-14.4c0-3.4-1.5-5.8-4.1-5.7c-2.5,0.1-4,2.6-4,6.1V135.2z M313,176.4c3-0.8,6.2-3.4,8.4-7.5l0.6,4l9.5-2.5v-68.2l-10.2,0.1v55.8
	c-0.1,2.8-1.6,5.1-4,5.6c-2.5,0.6-4-1.4-4-4.5v-56.8l-10.2,0.1v60.3C303.2,173.7,307.9,177.8,313,176.4z M338,102.2l19.8-0.1
	c8.4,0,8.6,7,8.6,13.2v10.9c0,6.2-0.2,13.2-8.6,14.6l-9.6,1.6v23.8l-10.2,2.6V102.2z M352.8,112.6l-4.7,0.2v18.9l4.7-0.6
	c2.6-0.3,3.3-2.4,3.3-5.9v-7.4C356.2,114.4,355.4,112.5,352.8,112.6z M203.1,299v7.4c0,11.2-0.4,24-21.1,24h-32.9
	c-8.7,0-15.7-8.3-15.7-18.5v-71.1l47.8-12.6c20.6-5.4,21.1,7.2,21.1,18.4v3.1c0,10.7-0.4,23.9-20.2,28.2
	C202.6,276.6,203.1,288.4,203.1,299z M158.4,272.8l10.8-1.7c6.3-1,8.2-4.5,8.2-10.1v-6.1c0-5.6-1.9-8.4-8.2-7l-10.8,2.4V272.8z
	 M178.1,295.5c0-5.6-1.9-8.7-8.2-8l-11.5,1.3v25.5l11.5-0.5c6.3-0.3,8.2-3.5,8.2-9.2V295.5z M249,207.9
	c-21.2,5.7-33.9,17.7-33.9,32.1v24.3l25-3.9v-21.7c0-5,2.8-9.3,9-10.7c6.3-1.4,9,1.7,9,6.9v16.9c0,21.7-42.9,19-42.9,52.8v26h67.6
	v-21.5l-42.6,1.9v-4.5c0-19.2,42.9-20.5,42.9-53.9v-26.9C282.9,208.7,270.4,202.1,249,207.9z M345.3,330.4h-48.6V197.8l47.8-12.6
	c20.6-5.4,21.1,12.3,21.1,27.9v4.4c0,14.9-0.4,33.4-20.2,38.4c20.5-0.8,20.9,15.8,20.9,30.5v10.4
	C366.3,312.5,365.9,330.4,345.3,330.4z M321.6,247l10.8-1.7c6.3-1,8.2-5.8,8.2-13.8v-8.7c0-8-1.9-12.1-8.2-10.7l-10.8,2.4V247z
	 M341.4,293.8v-13.1c0-8-1.9-12.5-8.2-11.8l-11.5,1.3v37l11.5-0.5C339.4,306.4,341.4,301.8,341.4,293.8z"/>
</svg>
